<svg xmlns="http://www.w3.org/2000/svg" xmlns:xlink="http://www.w3.org/1999/xlink" viewBox="0 0 303.35 52.3"><defs><style>.cls-1{fill:#faaa1c;}.cls-2{fill:#2d58a9;}.cls-3{fill:url(#New_Gradient_Swatch_copy);}.cls-4{fill:url(#New_Gradient_Swatch);}.cls-5{fill:url(#New_Gradient_Swatch-2);}.cls-6{fill:url(#New_Gradient_Swatch_copy-2);}.cls-7{fill:url(#New_Gradient_Swatch-3);}.cls-8{fill:url(#New_Gradient_Swatch-4);}.cls-9{fill:url(#New_Gradient_Swatch_copy_2);}.cls-10{fill:url(#New_Gradient_Swatch_copy_2-2);}.cls-11{fill:url(#linear-gradient);}.cls-12{fill:url(#New_Gradient_Swatch_copy_2-3);}</style><linearGradient id="New_Gradient_Swatch_copy" x1="74.58" y1="10.17" x2="85.72" y2="51.4" gradientUnits="userSpaceOnUse"><stop offset="0" stop-color="#2a3996"/><stop offset="0.58" stop-color="#25a2de"/><stop offset="1" stop-color="#1e2f96"/></linearGradient><linearGradient id="New_Gradient_Swatch" x1="56.55" y1="36.48" x2="86.14" y2="36.48" gradientUnits="userSpaceOnUse"><stop offset="0" stop-color="#25a2de"/><stop offset="0.84" stop-color="#2a3996"/><stop offset="1" stop-color="#1e2f96"/></linearGradient><linearGradient id="New_Gradient_Swatch-2" x1="56.87" y1="10.82" x2="99.27" y2="10.82" xlink:href="#New_Gradient_Swatch"/><linearGradient id="New_Gradient_Swatch_copy-2" x1="73.91" y1="10.17" x2="85.06" y2="51.4" gradientTransform="matrix(-1, 0, 0, 1, 103.63, 0)" xlink:href="#New_Gradient_Swatch_copy"/><linearGradient id="New_Gradient_Swatch-3" x1="55.89" y1="36.48" x2="85.48" y2="36.48" gradientTransform="matrix(-1, 0, 0, 1, 103.63, 0)" xlink:href="#New_Gradient_Swatch"/><linearGradient id="New_Gradient_Swatch-4" x1="56.21" y1="10.82" x2="98.61" y2="10.82" gradientTransform="matrix(-1, 0, 0, 1, 103.63, 0)" xlink:href="#New_Gradient_Swatch"/><linearGradient id="New_Gradient_Swatch_copy_2" x1="49.4" y1="28.09" x2="62.01" y2="17.19" gradientUnits="userSpaceOnUse"><stop offset="0" stop-color="#fcd90c"/><stop offset="0.58" stop-color="#faaa1c"/><stop offset="1" stop-color="#f37227"/></linearGradient><linearGradient id="New_Gradient_Swatch_copy_2-2" x1="54.59" y1="24.55" x2="42.05" y2="18.09" xlink:href="#New_Gradient_Swatch_copy_2"/><linearGradient id="linear-gradient" x1="50.85" y1="32.89" x2="63.69" y2="32.89" gradientUnits="userSpaceOnUse"><stop offset="0" stop-color="#fcd90c"/><stop offset="0.01" stop-color="#fcd80c"/><stop offset="0.23" stop-color="#fbbf15"/><stop offset="0.42" stop-color="#faaf1a"/><stop offset="0.58" stop-color="#faaa1c"/><stop offset="1" stop-color="#f37227"/></linearGradient><linearGradient id="New_Gradient_Swatch_copy_2-3" x1="52.64" y1="32.89" x2="40.63" y2="32.89" xlink:href="#New_Gradient_Swatch_copy_2"/></defs><g id="Layer_2" data-name="Layer 2"><g id="Layer_1-2" data-name="Layer 1"><path class="cls-1" d="M118.17,32.4V49.49h-2.8V32.4Z"/><path class="cls-1" d="M141.79,49.49H139l-8.43-12.76V49.49h-2.8V32.38h2.8L139,45.11V32.38h2.8Z"/><path class="cls-1" d="M161.74,33.45a7.49,7.49,0,0,1,3.18,3A9.06,9.06,0,0,1,166,41a8.86,8.86,0,0,1-1.11,4.52,7.42,7.42,0,0,1-3.18,2.94,10.58,10.58,0,0,1-4.78,1h-5.58V32.4H157A10.33,10.33,0,0,1,161.74,33.45Zm-.18,12.13a6.26,6.26,0,0,0,1.6-4.57,6.5,6.5,0,0,0-1.6-4.65,6.09,6.09,0,0,0-4.6-1.67h-2.78V47.2H157A6.19,6.19,0,0,0,161.56,45.58Z"/><path class="cls-1" d="M177.51,32.4V49.49h-2.8V32.4Z"/><path class="cls-1" d="M197.4,46h-7.15L189,49.49h-2.93l6.12-17.11h3.25l6.12,17.11h-3Zm-.78-2.29-2.78-7.94L191,43.71Z"/><path class="cls-1" d="M224.17,49.49h-2.8l-8.43-12.76V49.49h-2.8V32.38h2.8l8.43,12.73V32.38h2.8Z"/><path class="cls-1" d="M244.06,46h-7.15l-1.23,3.49h-2.93l6.12-17.11h3.25l6.12,17.11h-3Zm-.79-2.29-2.77-7.94-2.81,7.94Z"/><path class="cls-2" d="M134.75,22.28a12.08,12.08,0,0,1-8.69,3.39c-8.49,0-12.08-5.84-12.11-11.79s3.85-12,12.11-12a11.79,11.79,0,0,1,8.39,3.5L131.58,8.1A7.85,7.85,0,0,0,126.06,6c-5.52,0-7.9,4.11-7.87,7.93s2.22,7.74,7.87,7.74a8.39,8.39,0,0,0,5.75-2.32Z"/><path class="cls-2" d="M164.86,13.85c-.07,5.91-3.69,11.82-11.73,11.82s-11.75-5.78-11.75-11.79,3.85-12,11.75-12S164.92,7.87,164.86,13.85Zm-19.24.1c.1,3.75,2.13,7.77,7.51,7.77s7.42-4,7.48-7.8-2.09-8.17-7.48-8.17S145.53,10.1,145.62,14Z"/><path class="cls-2" d="M188.27,2.26h4.31V25.15H189.9v0l-12-15.44V25.15h-4.31V2.29h3.49l11.2,14.17Z"/><path class="cls-2" d="M218.8,25.15H201.69V2.29H218.8V6.47H206v5.26h12.38v4H206V20.9H218.8Z"/><path class="cls-2" d="M242.87,2.29h4.74v.2l-7.74,11.1,8,11.43v.13H243l-5.84-8.59-5.85,8.59h-4.83V25l7.93-11.43-7.7-11.1v-.2h4.73l5.72,8.52Z"/><path class="cls-2" d="M275.66,2.32v13.1c0,6.76-4.15,10.22-9.9,10.22-5.48,0-10.15-3.33-10.15-10.22V2.32h4.28v13.1c0,4.11,2.35,6.3,5.91,6.3s5.58-2.38,5.58-6.3V2.32Z"/><path class="cls-2" d="M299.2,7.81a6.54,6.54,0,0,0-5.42-2.55c-3.2,0-4.73,1.34-4.73,3,0,2,2.35,2.55,5.09,2.87,4.77.59,9.21,1.83,9.21,7.28,0,5.1-4.51,7.29-9.6,7.29-4.67,0-8.26-1.44-10-5.62l3.59-1.86c1,2.51,3.66,3.62,6.44,3.62s5.25-.94,5.25-3.43c0-2.15-2.25-3-5.29-3.36-4.67-.55-9-1.79-9-6.92,0-4.7,4.64-6.63,8.85-6.66,3.56,0,7.25,1,9,4.54Z"/><path class="cls-3" d="M104.29,26.15A26.14,26.14,0,0,1,57.71,42.46c-.17-.14-1.16-1.55-1.16-1.55,1.84,1.75,6.18,2.65,8.64,2.65h0A26.11,26.11,0,0,0,86.14,33.12l0-.06a10.75,10.75,0,0,0,2.34-3.76h0A10.91,10.91,0,0,0,78.27,14.64c-4.78,0-10.68,7-10.68,7A26.13,26.13,0,0,1,90,9h0a25.91,25.91,0,0,1,9.27,1.71A26,26,0,0,1,104.29,26.15Z"/><path class="cls-4" d="M86.14,33.12A26.11,26.11,0,0,1,65.23,43.56h0c-7.23-.36-8.64-2.65-8.64-2.65l7.31-7.32,4.19-4.19a10.92,10.92,0,0,0,18.09,3.72Z"/><path class="cls-5" d="M99.27,10.75A25.91,25.91,0,0,0,90,9h0A26.13,26.13,0,0,0,67.59,21.65L56.87,10.93A26.12,26.12,0,0,1,78.14,0a25.69,25.69,0,0,1,7.53,1.11A26.14,26.14,0,0,1,99.27,10.75Z"/><path class="cls-6" d="M0,26.15A26.14,26.14,0,0,0,46.58,42.46c.17-.14,1.16-1.55,1.16-1.55-1.84,1.75-6.17,2.65-8.64,2.65h0A26.11,26.11,0,0,1,18.15,33.12l0-.06a10.75,10.75,0,0,1-2.34-3.76h0A10.91,10.91,0,0,1,26,14.64c4.78,0,10.68,7,10.68,7A26.13,26.13,0,0,0,14.33,9h0A25.91,25.91,0,0,0,5,10.75,26,26,0,0,0,0,26.15Z"/><path class="cls-7" d="M18.15,33.12A26.11,26.11,0,0,0,39.06,43.56h0c7.23-.36,8.64-2.65,8.64-2.65l-7.31-7.32L36.24,29.4a10.92,10.92,0,0,1-18.09,3.72Z"/><path class="cls-8" d="M5,10.75A25.91,25.91,0,0,1,14.29,9h0A26.13,26.13,0,0,1,36.7,21.65L47.42,10.93A26.12,26.12,0,0,0,26.15,0a25.69,25.69,0,0,0-7.53,1.11A26.14,26.14,0,0,0,5,10.75Z"/><polygon class="cls-9" points="65.11 26.47 52.27 13.63 52.27 13.63 52.27 26.47 65.11 26.47"/><polygon class="cls-10" points="52.27 13.63 39.44 26.47 52.27 26.47 52.27 13.63"/><polygon class="cls-11" points="65.11 26.47 52.27 26.47 52.27 39.31 52.27 39.31 65.11 26.47"/><polygon class="cls-12" points="39.44 26.47 52.27 26.47 52.27 26.47 65.11 26.47"/></g></g></svg>
